<svg width="40" height="38" viewBox="0 0 40 38" fill="none" xmlns="http://www.w3.org/2000/svg">
<path d="M38.5518 7.35769L30.5609 14.8159L24.9041 9.53613L32.8922 2.08057C30.6555 1.08357 28.1429 0.757467 25.6997 1.14707C23.2564 1.53667 21.0024 2.62286 19.2472 4.2564C17.761 5.64663 16.6926 7.37717 16.1491 9.27443C15.6057 11.1717 15.6063 13.169 16.1509 15.0659L2.27667 28.0152C-0.0737507 30.2089 -0.0737507 33.741 2.27667 35.9348C4.62709 38.1285 8.41153 38.1285 10.762 35.9348L24.6389 22.9829C26.6708 23.4911 28.81 23.4918 30.8422 22.985C32.8744 22.4783 34.7282 21.4818 36.2178 20.0956C37.9691 18.4576 39.1337 16.3534 39.5517 14.0725C39.9696 11.7916 39.6203 9.44581 38.5518 7.35769Z" fill="white"/>
</svg>
