<svg width="50" height="50" viewBox="0 0 50 50" fill="none" xmlns="http://www.w3.org/2000/svg">
<path fill-rule="evenodd" clip-rule="evenodd" d="M26.5625 0H23.4375C21.7125 0 20.3125 1.4 20.3125 3.125V46.875C20.3125 48.6 21.7125 50 23.4375 50H26.5625C28.2875 50 29.6875 48.6 29.6875 46.875V3.125C29.6875 1.4 28.2875 0 26.5625 0ZM42.1875 25H39.0625C37.3375 25 35.9375 26.4 35.9375 28.125V46.875C35.9375 48.6 37.3375 50 39.0625 50H42.1875C43.9125 50 45.3125 48.6 45.3125 46.875V28.125C45.3125 26.4 43.9125 25 42.1875 25ZM10.9375 14.0625H7.8125C6.0875 14.0625 4.6875 15.4625 4.6875 17.1875V46.875C4.6875 48.6 6.0875 50 7.8125 50H10.9375C12.6625 50 14.0625 48.6 14.0625 46.875V17.1875C14.0625 15.4625 12.6625 14.0625 10.9375 14.0625Z" fill="#9D9D9D"/>
</svg>
