<svg width="6" height="40" viewBox="0 0 6 40" fill="none" xmlns="http://www.w3.org/2000/svg">
<path d="M3 39.1667C2.33967 39.158 1.70867 38.892 1.24167 38.425C0.774666 37.958 0.508667 37.327 0.5 36.6667V13.3333C0.5 12.6703 0.763333 12.0344 1.23233 11.5656C1.701 11.0967 2.337 10.8333 3 10.8333C3.663 10.8333 4.299 11.0967 4.76767 11.5656C5.23667 12.0344 5.5 12.6703 5.5 13.3333V36.6667C5.49133 37.327 5.22533 37.958 4.75833 38.425C4.29133 38.892 3.66033 39.158 3 39.1667Z" fill="#9D9D9D"/>
<path d="M3 7.49999C2.33967 7.49136 1.70867 7.22519 1.24167 6.75823C0.774666 6.29123 0.508667 5.66036 0.5 4.99999V3.33333C0.5 2.67029 0.763333 2.03439 1.23233 1.56556C1.701 1.09673 2.337 0.833328 3 0.833328C3.663 0.833328 4.299 1.09673 4.76767 1.56556C5.23667 2.03439 5.5 2.67029 5.5 3.33333V4.99999C5.49133 5.66036 5.22533 6.29123 4.75833 6.75823C4.29133 7.22519 3.66033 7.49136 3 7.49999Z" fill="#9D9D9D"/>
</svg>
